HIERARCHY
ROOT Hips
{
	OFFSET 0.0136489431 2.13670418 85.5290222
	CHANNELS 6 Xposition Yposition Zposition Zrotation Yrotation Xrotation 
	JOINT Spine
	{
		OFFSET 2.30099286e-05 2.08003235 8.81424618
		CHANNELS 3 Zrotation Yrotation Xrotation 
		JOINT Spine1
		{
			OFFSET 8.7261958e-07 2.72457055e-06 8.84414387
			CHANNELS 3 Zrotation Yrotation Xrotation 
			JOINT Spine2
			{
				OFFSET -2.55740429e-06 -4.31642138e-06 11.682272
				CHANNELS 3 Zrotation Yrotation Xrotation 
				JOINT Spine3
				{
					OFFSET 6.59586306e-07 3.93247592e-06 11.7466984
					CHANNELS 3 Zrotation Yrotation Xrotation 
					JOINT Neck
					{
						OFFSET 8.48960008e-06 8.42700974e-05 17.6582756
						CHANNELS 3 Zrotation Yrotation Xrotation 
						JOINT Neck1
						{
							OFFSET 3.79443094e-07 -3.26421036e-06 5.10151863
							CHANNELS 3 Zrotation Yrotation Xrotation 
							JOINT Head
							{
								OFFSET -9.47953868e-06 -8.86555881e-06 5.10151625
								CHANNELS 3 Zrotation Yrotation Xrotation 
								JOINT HeadEnd
								{
									OFFSET -4.13024277e-16 -5.50596564e-14 11.6550846
									CHANNELS 3 Zrotation Yrotation Xrotation 
									End Site
									{
										OFFSET 0 0 0
									}
								}
							}
						}
					}
				}
				JOINT RightShoulder
				{
					OFFSET -2.62538743 4.81263169e-06 11.1752224
					CHANNELS 3 Zrotation Yrotation Xrotation 
					JOINT RightArm
					{
						OFFSET -1.50603675e-06 -1.24267818e-05 10.4347115
						CHANNELS 3 Zrotation Yrotation Xrotation 
						JOINT RightForeArm
						{
							OFFSET 0.069977134 0.536955001 25.8717893
							CHANNELS 3 Zrotation Yrotation Xrotation 
							JOINT RightHand
							{
								OFFSET 0.298976964 0.0338061789 24.8929021
								CHANNELS 3 Zrotation Yrotation Xrotation 
								JOINT RightHandThumb1
								{
									OFFSET -2.86730862 -2.94429946 3.95956302
									CHANNELS 3 Zrotation Yrotation Xrotation 
									JOINT RightHandThumb2
									{
										OFFSET 5.44471726e-06 6.88177021e-07 3.35039091
										CHANNELS 3 Zrotation Yrotation Xrotation 
										JOINT RightHandThumb3
										{
											OFFSET -5.18119812e-06 -3.88906735e-06 3.75651813
											CHANNELS 3 Zrotation Yrotation Xrotation 
											JOINT RightHandThumb4
											{
												OFFSET -4.83070982e-07 1.11636681e-06 3.1473465
												CHANNELS 3 Zrotation Yrotation Xrotation 
												End Site
												{
													OFFSET 0 0 0
												}
											}
										}
									}
								}
							}
							JOINT RightHandIndex1
							{
								OFFSET -0.0867566392 -2.34528232 10.030899
								CHANNELS 3 Zrotation Yrotation Xrotation 
								JOINT RightHandIndex2
								{
									OFFSET -3.76662116e-06 -3.41322158e-06 4.06108809
									CHANNELS 3 Zrotation Yrotation Xrotation 
									JOINT RightHandIndex3
									{
										OFFSET 2.12695065e-06 2.91990217e-06 3.2488718
										CHANNELS 3 Zrotation Yrotation Xrotation 
										JOINT RightHandIndex4
										{
											OFFSET 1.19115619e-07 -2.31537559e-06 2.6397078
											CHANNELS 3 Zrotation Yrotation Xrotation 
											End Site
											{
												OFFSET 0 0 0
											}
										}
									}
								}
							}
						}
						JOINT RightHandMiddle1
						{
							OFFSET 0.104109198 -0.00677696662 9.50295544
							CHANNELS 3 Zrotation Yrotation Xrotation 
							JOINT RightHandMiddle2
							{
								OFFSET -4.00518747e-07 -5.93760964e-06 4.56873274
								CHANNELS 3 Zrotation Yrotation Xrotation 
								JOINT RightHandMiddle3
								{
									OFFSET 7.54751455e-06 3.29262286e-06 3.6549809
									CHANNELS 3 Zrotation Yrotation Xrotation 
									JOINT RightHandMiddle4
									{
										OFFSET -2.47242271e-06 -5.72284435e-06 2.74122977
										CHANNELS 3 Zrotation Yrotation Xrotation 
										End Site
										{
											OFFSET 0 0 0
										}
									}
								}
							}
						}
					}
					JOINT RightHandRing1
					{
						OFFSET 0.0867536962 2.26744866 8.92171097
						CHANNELS 3 Zrotation Yrotation Xrotation 
						JOINT RightHandRing2
						{
							OFFSET -8.49416485e-06 -8.33849263e-08 4.06109715
							CHANNELS 3 Zrotation Yrotation Xrotation 
							JOINT RightHandRing3
							{
								OFFSET -2.69741424e-07 -8.05873964e-06 3.65497613
								CHANNELS 3 Zrotation Yrotation Xrotation 
								JOINT RightHandRing4
								{
									OFFSET -1.75682811e-07 6.02012545e-07 2.74124503
									CHANNELS 3 Zrotation Yrotation Xrotation 
									End Site
									{
										OFFSET 0 0 0
									}
								}
							}
						}
					}
				}
				JOINT RightHandPinky1
				{
					OFFSET -0.173490137 4.46720457 7.97699213
					CHANNELS 3 Zrotation Yrotation Xrotation 
					JOINT RightHandPinky2
					{
						OFFSET -5.09637176e-06 1.14142521e-05 3.35040545
						CHANNELS 3 Zrotation Yrotation Xrotation 
						JOINT RightHandPinky3
						{
							OFFSET -2.41064345e-06 -3.31119791e-07 2.84276104
							CHANNELS 3 Zrotation Yrotation Xrotation 
							JOINT RightHandPinky4
							{
								OFFSET -4.84227395e-06 -4.19883692e-06 2.63970661
								CHANNELS 3 Zrotation Yrotation Xrotation 
								End Site
								{
									OFFSET 0 0 0
								}
							}
						}
					}
				}
			}
			JOINT RightForeArmEnd
			{
				OFFSET -2.56183113e-14 6.35784429e-17 -1.74232385e-16
				CHANNELS 3 Zrotation Yrotation Xrotation 
				End Site
				{
					OFFSET 0 0 0
				}
			}
		}
	}
	JOINT RightArmEnd
	{
		OFFSET -6.99860395e-14 1.81852944e-16 1.22731819e-14
		CHANNELS 3 Zrotation Yrotation Xrotation 
		End Site
		{
			OFFSET 0 0 0
		}
	}
}
MOTION
Frames: 11
Frame Time: 0.033333
-209.365083 86.4585573 47.9990988 -7.02602921 14.9672371 12.8010447 -7.52854016 2.58746945 9.02581344 -6.86325117 7.76050506 4.45940586 -4.98664396 14.8593703 -2.17368708 12.0870973 -10.0966081 -10.7865959 0 0 -0 0 0 -0 0 0 -0 0 0 -0 -18.1294912 31.474787 12.5128086 -8.05059046 29.1365562 -2.62526976 -7.43859981 10.1037717 -30.4389477 -26.7609478 -4.76820344 -49.1880784 0 0 -0 0 0 -0 0 0 -0 0 0 -0 0 0 -0 0 0 -0 0 0 -0 0 0 -0 0 0 -0 0 0 -0 0 0 -0 0 0 -0 0 0 -0 0 0 -0 0 0 -0 0 0 -0 0 0 -0 0 0 -0 0 0 -0 0 0 -0 0 0 -0 0 0 -0 
-209.293818 86.6227212 47.9617026 -7.09929695 15.0559539 12.7824966 -7.52882114 2.52508386 8.97389925 -6.86047508 7.69153157 4.41734006 -4.99252394 14.7860152 -2.20318025 12.0997313 -10.1788829 -10.8129243 0 0 -0 0 0 -0 0 0 -0 0 0 -0 -18.1774745 31.4687966 12.5465244 -8.08515606 29.1413996 -2.57979924 -7.44319199 10.1206771 -30.4013756 -26.7419611 -4.75455113 -49.1551506 0 0 -0 0 0 -0 0 0 -0 0 0 -0 0 0 -0 0 0 -0 0 0 -0 0 0 -0 0 0 -0 0 0 -0 0 0 -0 0 0 -0 0 0 -0 0 0 -0 0 0 -0 0 0 -0 0 0 -0 0 0 -0 0 0 -0 0 0 -0 0 0 -0 0 0 -0 
-209.227029 86.7742198 47.9354799 -7.17531081 15.143543 12.765483 -7.5310289 2.46328072 8.92038135 -6.85973579 7.62281888 4.3737928 -5.00069338 14.7128838 -2.23371928 12.1120583 -10.2612453 -10.8395579 0 0 -0 0 0 -0 0 0 -0 0 0 -0 -18.22815 31.4625779 12.5807556 -8.12250437 29.1462993 -2.53256398 -7.44929903 10.1388524 -30.3622377 -26.722671 -4.73899805 -49.1210269 0 0 -0 0 0 -0 0 0 -0 0 0 -0 0 0 -0 0 0 -0 0 0 -0 0 0 -0 0 0 -0 0 0 -0 0 0 -0 0 0 -0 0 0 -0 0 0 -0 0 0 -0 0 0 -0 0 0 -0 0 0 -0 0 0 -0 0 0 -0 0 0 -0 0 0 -0 
-209.17117 86.910707 47.9063519 -7.2512518 15.2296345 12.7503053 -7.53282079 2.40212603 8.86575271 -6.85866377 7.55468539 4.32896154 -5.00866019 14.6402316 -2.26574211 12.1245518 -10.3437168 -10.8659381 0 0 -0 0 0 -0 0 0 -0 0 0 -0 -18.2793486 31.4567059 12.6134929 -8.16135412 29.1512013 -2.4859592 -7.45702447 10.1578964 -30.323477 -26.7038846 -4.7216488 -49.0875072 0 0 -0 0 0 -0 0 0 -0 0 0 -0 0 0 -0 0 0 -0 0 0 -0 0 0 -0 0 0 -0 0 0 -0 0 0 -0 0 0 -0 0 0 -0 0 0 -0 0 0 -0 0 0 -0 0 0 -0 0 0 -0 0 0 -0 0 0 -0 0 0 -0 0 0 -0 
-209.126626 87.0327556 47.8734005 -7.32632987 15.3144388 12.7373373 -7.53347304 2.341994 8.81041225 -6.85654483 7.48760071 4.28310517 -5.01563095 14.5685156 -2.29924109 12.1373835 -10.4259354 -10.8916624 0 0 -0 0 0 -0 0 0 -0 0 0 -0 -18.3302798 31.4513934 12.6439287 -8.20128388 29.1560672 -2.44089808 -7.46646983 10.1776847 -30.2858251 -26.685917 -4.70246967 -49.0552915 0 0 -0 0 0 -0 0 0 -0 0 0 -0 0 0 -0 0 0 -0 0 0 -0 0 0 -0 0 0 -0 0 0 -0 0 0 -0 0 0 -0 0 0 -0 0 0 -0 0 0 -0 0 0 -0 0 0 -0 0 0 -0 0 0 -0 0 0 -0 0 0 -0 0 0 -0 
-209.091209 87.1388678 47.8441527 -7.40112627 15.3988815 12.7274005 -7.53328043 2.28379634 8.75520293 -6.85371467 7.42252961 4.23697354 -5.02180929 14.4987562 -2.33354954 12.1506585 -10.506978 -10.9163527 0 0 -0 0 0 -0 0 0 -0 0 0 -0 -18.380928 31.4467624 12.6722417 -8.24216072 29.161048 -2.39733626 -7.47741203 10.1982875 -30.2493026 -26.6685562 -4.6815679 -49.0244211 0 0 -0 0 0 -0 0 0 -0 0 0 -0 0 0 -0 0 0 -0 0 0 -0 0 0 -0 0 0 -0 0 0 -0 0 0 -0 0 0 -0 0 0 -0 0 0 -0 0 0 -0 0 0 -0 0 0 -0 0 0 -0 0 0 -0 0 0 -0 0 0 -0 0 0 -0 
-209.059688 87.2294249 47.8093429 -7.47312739 15.4828907 12.7201014 -7.53024972 2.22770905 8.70039297 -6.84817302 7.35982766 4.19060285 -5.02511154 14.4312323 -2.36912808 12.1648328 -10.587051 -10.9401682 0 0 -0 0 0 -0 0 0 -0 0 0 -0 -18.4296687 31.4435018 12.6974222 -8.28270994 29.1664764 -2.35688649 -7.48936232 10.2195594 -30.2153233 -26.6518852 -4.65932884 -48.9961496 0 0 -0 0 0 -0 0 0 -0 0 0 -0 0 0 -0 0 0 -0 0 0 -0 0 0 -0 0 0 -0 0 0 -0 0 0 -0 0 0 -0 0 0 -0 0 0 -0 0 0 -0 0 0 -0 0 0 -0 0 0 -0 0 0 -0 0 0 -0 0 0 -0 0 0 -0 
-209.028672 87.3048159 47.7685795 -7.54224945 15.5662241 12.7159244 -7.5243549 2.17356891 8.6468278 -6.83985714 7.29944961 4.14485861 -5.02535758 14.3659987 -2.4051452 12.1801296 -10.6663974 -10.9629718 0 0 -0 0 0 -0 0 0 -0 0 0 -0 -18.4764386 31.4419664 12.7201517 -8.32242796 29.1728527 -2.31934789 -7.50153027 10.2416407 -30.1839045 -26.6352843 -4.63625763 -48.9704365 0 0 -0 0 0 -0 0 0 -0 0 0 -0 0 0 -0 0 0 -0 0 0 -0 0 0 -0 0 0 -0 0 0 -0 0 0 -0 0 0 -0 0 0 -0 0 0 -0 0 0 -0 0 0 -0 0 0 -0 0 0 -0 0 0 -0 0 0 -0 0 0 -0 0 0 -0 
-208.996575 87.3633512 47.7277013 -7.61031481 15.6485688 12.7164062 -7.51707627 2.1210142 8.5962411 -6.83018025 7.24116366 4.1016703 -5.023754 14.3031033 -2.43939302 12.1967035 -10.7452078 -10.9843186 0 0 -0 0 0 -0 0 0 -0 0 0 -0 -18.5223117 31.4423581 12.7426789 -8.36116562 29.1809659 -2.28305699 -7.51257462 10.2648906 -30.1540057 -26.617394 -4.61319792 -48.9462412 0 0 -0 0 0 -0 0 0 -0 0 0 -0 0 0 -0 0 0 -0 0 0 -0 0 0 -0 0 0 -0 0 0 -0 0 0 -0 0 0 -0 0 0 -0 0 0 -0 0 0 -0 0 0 -0 0 0 -0 0 0 -0 0 0 -0 0 0 -0 0 0 -0 0 0 -0 
-208.962745 87.401571 47.6859826 -7.6785147 15.7300317 12.720553 -7.51017861 2.06980533 8.54812147 -6.82091494 7.18453371 4.06076258 -5.02218751 14.2421496 -2.47165289 12.2145016 -10.8232748 -11.0044396 0 0 -0 0 0 -0 0 0 -0 0 0 -0 -18.5691449 31.4437248 12.7664138 -8.40023269 29.1903358 -2.2459669 -7.52288063 10.2892781 -30.1238078 -26.5981113 -4.58997971 -48.921867 0 0 -0 0 0 -0 0 0 -0 0 0 -0 0 0 -0 0 0 -0 0 0 -0 0 0 -0 0 0 -0 0 0 -0 0 0 -0 0 0 -0 0 0 -0 0 0 -0 0 0 -0 0 0 -0 0 0 -0 0 0 -0 0 0 -0 0 0 -0 0 0 -0 0 0 -0 
-208.928904 87.4117489 47.6440106 -7.74705831 15.8115223 12.7279285 -7.50433527 2.02077938 8.50201061 -6.81280945 7.1302629 4.02164799 -5.0214662 14.1837871 -2.50230923 12.2333012 -10.8999444 -11.0234485 0 0 -0 0 0 -0 0 0 -0 0 0 -0 -18.6175875 31.445926 12.7913271 -8.4403989 29.2008289 -2.20769443 -7.53301891 10.3149965 -30.0928878 -26.5775994 -4.5660883 -48.8969813 0 0 -0 0 0 -0 0 0 -0 0 0 -0 0 0 -0 0 0 -0 0 0 -0 0 0 -0 0 0 -0 0 0 -0 0 0 -0 0 0 -0 0 0 -0 0 0 -0 0 0 -0 0 0 -0 0 0 -0 0 0 -0 0 0 -0 0 0 -0 0 0 -0 0 0 -0 
